<?xml version="1.0" encoding="UTF-8"?>
<svg id="Réteg_1" data-name="Réteg 1" xmlns="http://www.w3.org/2000/svg" viewBox="0 0 183.04 188.39">
  <defs>
    <style>
      .cls-1, .cls-2 {
        fill: #00192d;
      }

      .cls-2 {
        stroke: #000;
        stroke-miterlimit: 10;
      }

      .cls-3 {
        fill: #006048;
      }

      .cls-4 {
        fill: #006837;
      }

      .cls-5 {
        fill: #7e272d;
      }

      .cls-6 {
        fill: #008b5b;
      }

      .cls-7 {
        fill: #ffcc4a;
      }
    </style>
  </defs>
  <path class="cls-6" d="M19.94,125.06c0,41.42,38.7,60.19,80.12,60.19s76.13-17.05,76.13-58.47-34.71-79.09-76.13-79.09S19.94,83.63,19.94,125.06Z"/>
  <g>
    <path class="cls-4" d="M176.18,126.38c0-.57-.03-1.14-.04-1.71.01.57.04,1.14.04,1.71s-.03,1.13-.04,1.69c.01-.57.05-1.12.05-1.69Z"/>
    <path class="cls-3" d="M110.88,183.79v-.05c-.92-1.3-3.92-1.79-8.19-2.75-9.67-1.53-18.98-4.68-27.29-8.76-26.63-13.1-40.16-42.13-32.76-70.12,4.06-15.35,12.21-29.83,22.61-40.03,1.47-1.64,8.18-7.47,5.45-8.29-1.22-.19-4.35,1.02-7.69,3.05-26.89,17.04-44.96,46.61-42.9,75.58.07,1.11.18,2.19.31,3.27.49,2.05,1.03,4.08,1.68,6.16,1,3.21,2.88,6.43,3.76,9.68.52.66,1.05,1.3,1.53,1.97,1.35,1.88,2.47,3.9,3.64,5.88.78.71,1.54,1.45,2.29,2.23,1.24,1.29,2.57,2.55,3.4,4.12,1.72,1.21,3.78,2.35,5.06,3.31,2.27,1.69,5.02,2.88,7.46,4.35,5.84,3.53,12.22,6.51,18.85,8.05,6.5,1.51,12.96,2.79,19.5,4.19,2.64.56,5.4.72,8.18.86,2.72-.07,5.45-.23,8.17-.49,2.44-.23,7.59-1.26,6.95-2.18Z"/>
  </g>
  <path class="cls-1" d="M71.95,62.96c-5.98-22.07-27.9-34.85-49.5-37.08-3.6-.4-7.23-.54-10.86-.46-1.82,0-3.62.22-5.44.27-2.33-.16-4.07-1.02-6-2.94,0,0-.16-.99-.16-.99,2.39-4.88,6.84-4.66,11.43-4.73,23.72-.63,50.21,10.93,59.09,34.23,1.38,3.74,2.24,7.63,2.43,11.53l-.99.16h0Z"/>
  <path class="cls-1" d="M124.54,66.01c-.18-24.15,11.62-49.69,33.76-61.3,3.8-1.96,7.93-3.38,12.2-4.2,2.12-.44,4.32-.76,6.51-.23,2.17.53,4.31,1.6,6.03,3.97,0,0-.12.99-.12.99-2.82,2.6-5.78,4.03-9.41,4.39,0,0-1.26.22-1.26.22-17.99,3.49-31.13,18.71-39.01,34.69-3.31,6.77-5.78,14.03-7.72,21.58,0,0-.99-.12-.99-.12h0Z"/>
  <path class="cls-1" d="M20.98,125.06c-.71,19.31,10.91,37.28,27.81,46.15,16.67,9.14,36.24,11.74,55.04,10.87,26.41-1.02,58.15-11.21,65.66-39.37,9.24-35.69-14.38-75.37-48.66-87.45-45.05-16.52-99.2,21.93-99.85,69.8h0ZM18.9,125.06c-.89-51.13,55.64-93.84,104.56-77.63,34.43,10.9,59.09,46.33,57.32,82.42-2.18,54.28-62.97,65.05-106.26,55.35-30.74-6.82-55.66-26.51-55.62-60.14h0Z"/>
  <g>
    <g>
      <path class="cls-7" d="M84.59,78.51c-12.35-5.15-36.96,15.07-33.61,32.89,1.66,8.85,10.27,17.32,19.87,17.65,12.38.42,21.29-12.85,23.07-24.1,1.58-9.92-1.6-23.21-9.34-26.44Z"/>
      <path class="cls-1" d="M83.95,80.03c-5.21-1.98-11.39.65-16,3.5-8.02,5.12-15.15,13.2-16.41,22.92-.94,8.31,4.49,16.38,11.79,20.09,8.69,4.57,18.18.64,23.45-7.09,5.28-7.28,7.33-16.68,5.56-25.47-1.05-5.38-3.18-11.48-8.39-13.95h0ZM85.22,77c6.34,2.89,9.07,10.11,10.05,16.49,1.53,9.51-1.14,19.49-7.12,27-5.93,7.84-16.18,11.83-25.27,6.94-8.47-4.2-14.52-13.94-12.66-23.5,2.01-13.57,20.57-32,35-26.94h0Z"/>
    </g>
    <ellipse class="cls-1" cx="74.11" cy="103.05" rx="16.22" ry="11.46" transform="translate(-46.13 143.73) rotate(-72.97)"/>
    <path class="cls-6" d="M97.97,95.82c-1.61,7.2-10.97,3.76-16.32-1.81-9.23-9.61-27.62-16.94-18.26-24.46,11.04-8.87,29.99,1.41,36.08,6.16,6.09,4.75-.46,15.46-1.49,20.1Z"/>
    <path class="cls-1" d="M60.06,77.15c7.24,3,13.72,7.73,19.75,12.65,3.03,2.41,5.94,5.01,8.98,6.93,1.87,1.16,4.32,2.59,6.21.94.13-.1.23-.26.41-.33.38-.11.87-.22,2.01.07l.81.59c.96,1.84,0,2.65-1.32,3.51-5.46,3.35-11.16-1.73-15.1-5.09-2.95-2.55-5.71-5.23-8.62-7.79-4.27-3.87-8.75-7.42-13.59-10.6,0,0,.47-.89.47-.89h0Z"/>
  </g>
  <g>
    <g>
      <path class="cls-7" d="M122.66,85.51c11.82-4.7,35.38,13.73,32.17,29.97-1.59,8.07-9.83,15.79-19.02,16.09-11.84.38-20.37-11.71-22.09-21.96-1.51-9.04,1.53-21.15,8.94-24.1Z"/>
      <path class="cls-1" d="M121.9,83.6c13.63-4.33,31.25,11.89,33.6,24.75,2.03,8.97-3.99,18-11.95,21.77-8.29,4.37-18.21,1.16-23.95-5.88-5.9-6.77-8.78-16.09-7.36-25.02.88-6.09,3.6-12.92,9.66-15.63h0ZM123.42,87.42c-4.83,2.01-7,7.45-8.03,12.35-1.12,5.4-.74,11.04,1.37,16.18,4.08,10.68,14.99,18.85,26.33,13.2,7.45-3.59,13.05-12.1,10.77-20.44-2.11-8.08-8.62-14.51-15.64-18.6-4.34-2.43-10.12-4.55-14.79-2.7h0Z"/>
    </g>
    <ellipse class="cls-1" cx="131.75" cy="106.73" rx="11.46" ry="16.22" transform="translate(-25.48 43.26) rotate(-17.03)"/>
    <path class="cls-6" d="M108.81,99.27c1.61,7.2,10.97,3.76,16.32-1.81,9.23-9.61,27.62-16.94,18.26-24.46-11.04-8.87-29.99,1.41-36.08,6.16-6.09,4.75.46,15.46,1.49,20.1Z"/>
    <path class="cls-1" d="M147.19,81.49c-6.44,4.27-12.16,9.32-17.78,14.58-3.76,3.35-7.27,7.09-11.96,9.29-2.2,1.1-5.48,1.26-7.66-.25-1.38-.91-2.33-1.72-1.23-3.65,0,0,.81-.59.81-.59,1.23-.35,1.74-.28,2.13-.18,1.96,1.97,4.34.67,6.42-.64,3.02-1.91,5.95-4.5,8.98-6.9,3.02-2.44,6.14-4.84,9.44-7,3.3-2.14,6.75-4.08,10.4-5.55,0,0,.47.89.47.89h0Z"/>
  </g>
  <g>
    <g>
      <path class="cls-2" d="M72.07,148.51c4.94-10.27,19-11.56,23.79-12,1.48-.14,24.57-1.95,31.86,12,2.63,5.04,3.5,12.69,0,15.96-4.42,4.12-12.15,5.57-19.32.21-3.32-2.48-6.2-3.06-8.87-3.07-3.04-.01-5.8,1.01-8.44,3.63-3.95,3.92-12.25,5.21-17.11,1.27-5.26-4.27-4.33-12.95-1.9-17.99Z"/>
      <path class="cls-5" d="M97.1,162.2c.55-.21,1.16-.33,1.86-.33.4,0,.78.04,1.14.12.13,0,.26-.02.39-.02.19,0,.38.01.56.03-.73-4.73-6.97-9.4-15.26-11.03-6.05-1.19-11.69-.44-15.26,1.64-.08.5-.24.98-.46,1.44.1.37.15.75.13,1.15v.38c0,.63-.12,1.23-.34,1.8-.02.3-.08.59-.15.88.13.3.23.61.3.93.24.53.36,1.1.33,1.71v.1c.06.14.12.28.18.42.1.15.21.3.29.46.24.41.41.84.52,1.29.03.05.07.1.1.15.26.45.46.93.7,1.39.01.01.03.02.04.04.4.29.78.6,1.11.96.28.31.5.64.69.99.13.07.26.15.38.24,1.01.22,1.8.73,2.39,1.4.86.04,1.58.29,2.2.64.3-.05.61-.08.94-.08.67,0,1.26.11,1.79.3.35-.07.73-.11,1.13-.11.18,0,.35.01.51.03.42-.11.86-.17,1.35-.17.07,0,.14,0,.22.01.34-.18.71-.32,1.11-.41.48-.24,1.02-.4,1.63-.47.57-.61,1.33-1.08,2.27-1.29.06-.02.12-.04.19-.05.2-.23.43-.44.68-.63.26-.28.56-.52.9-.73.42-.64,1.01-1.18,1.75-1.54.67-.7,1.59-1.18,2.75-1.33.29-.11.6-.2.92-.26Z"/>
    </g>
    <path class="cls-1" d="M71.61,148.29c6.13-12.21,24.04-13.74,36.14-12.35,6.72.89,13.66,3.1,18.42,8.27,4.37,4.99,7.03,13.87,3.45,19.92-4.82,6.03-13.64,6.63-19.67,2.98-1.46-.77-2.72-1.91-4.14-2.72-2.61-1.53-5.86-2.06-8.78-1.45-2.34.49-4.09,1.88-5.87,3.53-2.05,1.71-4.62,2.7-7.22,3.09-13.4,1.83-17.39-10.76-12.33-21.27h0ZM72.52,148.73c-4.24,9.38-1.09,21.08,11.14,19.08,2.28-.41,4.49-1.31,6.23-2.83,1.77-1.79,4.06-3.54,6.66-4.11,3.53-.8,7.26-.25,10.4,1.48,1.48.78,2.72,1.88,4.18,2.66,4.61,2.71,10.74,2.57,14.96-.81,3.1-2.24,2.99-6.67,2.31-10.14-1.17-6.33-5.75-11.21-11.64-13.63-12.13-5.18-37.47-5.17-44.22,8.3h0Z"/>
  </g>
</svg>